<svg width="260" height="261" viewBox="0 0 260 261" fill="none" xmlns="http://www.w3.org/2000/svg">
<path d="M130 78.3333L65 143.333L83.2 161.533L117 128.058V260.333H143V128.058L176.8 161.533L195 143.333L130 78.3333ZM21.45 201.833C14.5167 191.217 9.20833 179.842 5.525 167.708C1.84167 155.575 0 143.117 0 130.333C0 112.35 3.41467 95.45 10.244 79.6333C17.0733 63.8167 26.3337 50.0583 38.025 38.3583C49.725 26.6584 63.4833 17.398 79.3 10.5774C95.1167 3.75669 112.017 0.342018 130 0.333351C147.983 0.333351 164.883 3.74802 180.7 10.5774C196.517 17.4067 210.275 26.667 221.975 38.3583C233.675 50.0583 242.94 63.8167 249.769 79.6333C256.598 95.45 260.009 112.35 260 130.333C260 143.117 258.158 155.575 254.475 167.708C250.792 179.842 245.483 191.217 238.55 201.833L219.7 182.983C224.467 174.967 228.042 166.517 230.425 157.633C232.808 148.75 234 139.65 234 130.333C234 101.3 223.925 76.7083 203.775 56.5583C183.625 36.4083 159.033 26.3333 130 26.3333C100.967 26.3333 76.375 36.4083 56.225 56.5583C36.075 76.7083 26 101.3 26 130.333C26 139.65 27.1917 148.75 29.575 157.633C31.9583 166.517 35.5333 174.967 40.3 182.983L21.45 201.833Z" fill="#7166EA" fill-opacity="0.6"/>
</svg>
