<svg width="97" height="120" viewBox="0 0 97 120" fill="none" xmlns="http://www.w3.org/2000/svg">
<path d="M96.6665 107.28V120L85.8665 112.98L57.1265 58.98C61.0865 57.72 64.6865 55.68 67.8065 52.98L96.6665 107.28ZM66.6665 30C66.6665 34.7739 64.7701 39.3523 61.3944 42.7279C58.0188 46.1036 53.4404 48 48.6665 48H46.0265L11.4665 112.98L0.666504 120V107.28L35.4065 42C28.8065 34.62 29.4065 23.22 36.8465 16.56C40.0865 13.68 44.2865 12 48.6665 12V0C50.2578 0 51.7839 0.632141 52.9091 1.75736C54.0344 2.88258 54.6665 4.4087 54.6665 6V13.08C61.8665 15.6 66.6665 22.38 66.6665 30ZM54.6665 30C54.6665 28.4087 54.0344 26.8826 52.9091 25.7574C51.7839 24.6321 50.2578 24 48.6665 24C47.0752 24 45.5491 24.6321 44.4239 25.7574C43.2986 26.8826 42.6665 28.4087 42.6665 30C42.6665 31.5913 43.2986 33.1174 44.4239 34.2426C45.5491 35.3679 47.0752 36 48.6665 36C50.2578 36 51.7839 35.3679 52.9091 34.2426C54.0344 33.1174 54.6665 31.5913 54.6665 30Z" fill="#7166EA"/>
</svg>
