<svg width="120" height="120" viewBox="0 0 120 120" fill="none" xmlns="http://www.w3.org/2000/svg">
<path d="M119.172 30.2842L116.696 18.4611L98.3297 37.8947H82.1045V21.6632L101.544 3.20842L89.6897 0.770526C87.214 0.258947 84.6561 0 82.1045 0C61.2055 0 44.2097 17.16 44.2097 38.2484C44.2097 40.9011 44.5318 43.5853 45.1761 46.3642L5.92974 84.9095C-1.97763 92.9242 -1.97763 105.954 5.93605 113.968C9.78869 117.853 14.9234 120 20.4055 120C25.8813 120 31.0224 117.853 34.8055 114.025L74.1466 75.3726C76.8561 75.7895 79.4961 75.7895 82.1045 75.7895C103.351 75.7895 119.999 59.2989 119.999 38.2484C119.999 35.5832 119.721 32.8989 119.172 30.2842Z" fill="#7166EA"/>
</svg>
