<svg width="92" height="120" viewBox="0 0 92 120" fill="none" xmlns="http://www.w3.org/2000/svg">
<path d="M80 40H74.2857V28.5714C74.2857 12.8 61.4857 0 45.7143 0C29.9429 0 17.1429 12.8 17.1429 28.5714V40H11.4286C5.14286 40 0 45.1429 0 51.4286V108.571C0 114.857 5.14286 120 11.4286 120H80C86.2857 120 91.4286 114.857 91.4286 108.571V51.4286C91.4286 45.1429 86.2857 40 80 40ZM45.7143 91.4286C39.4286 91.4286 34.2857 86.2857 34.2857 80C34.2857 73.7143 39.4286 68.5714 45.7143 68.5714C52 68.5714 57.1429 73.7143 57.1429 80C57.1429 86.2857 52 91.4286 45.7143 91.4286ZM63.4286 40H28V28.5714C28 18.8 35.9429 10.8571 45.7143 10.8571C55.4857 10.8571 63.4286 18.8 63.4286 28.5714V40Z" fill="#7166EA"/>
</svg>
