<svg width="121" height="120" viewBox="0 0 121 120" fill="none" xmlns="http://www.w3.org/2000/svg">
<path d="M27.3335 93L72.3335 72L93.3335 27L48.3335 48L27.3335 93ZM60.3335 66C58.6335 66 57.2075 65.424 56.0555 64.272C54.9035 63.12 54.3295 61.696 54.3335 60C54.3335 58.3 54.9095 56.874 56.0615 55.722C57.2135 54.57 58.6375 53.996 60.3335 54C62.0335 54 63.4595 54.576 64.6115 55.728C65.7635 56.88 66.3375 58.304 66.3335 60C66.3335 61.7 65.7575 63.126 64.6055 64.278C63.4535 65.43 62.0295 66.004 60.3335 66ZM60.3335 120C52.0335 120 44.2335 118.424 36.9335 115.272C29.6335 112.12 23.2835 107.846 17.8835 102.45C12.4835 97.05 8.2095 90.7 5.0615 83.4C1.9135 76.1 0.337496 68.3 0.333496 60C0.333496 51.7 1.9095 43.9 5.0615 36.6C8.2135 29.3 12.4875 22.95 17.8835 17.55C23.2835 12.15 29.6335 7.876 36.9335 4.728C44.2335 1.58 52.0335 0.004 60.3335 0C68.6335 0 76.4335 1.576 83.7335 4.728C91.0335 7.88 97.3835 12.154 102.783 17.55C108.183 22.95 112.459 29.3 115.611 36.6C118.763 43.9 120.337 51.7 120.333 60C120.333 68.3 118.757 76.1 115.605 83.4C112.453 90.7 108.179 97.05 102.783 102.45C97.3835 107.85 91.0335 112.126 83.7335 115.278C76.4335 118.43 68.6335 120.004 60.3335 120ZM60.3335 108C73.7335 108 85.0835 103.35 94.3835 94.05C103.683 84.75 108.333 73.4 108.333 60C108.333 46.6 103.683 35.25 94.3835 25.95C85.0835 16.65 73.7335 12 60.3335 12C46.9335 12 35.5835 16.65 26.2835 25.95C16.9835 35.25 12.3335 46.6 12.3335 60C12.3335 73.4 16.9835 84.75 26.2835 94.05C35.5835 103.35 46.9335 108 60.3335 108Z" fill="#7166EA"/>
</svg>
