<svg width="120" height="120" viewBox="0 0 120 120" fill="none" xmlns="http://www.w3.org/2000/svg">
<path d="M60 36L30 66L38.4 74.4L54 58.95V120H66V58.95L81.6 74.4L90 66L60 36ZM9.9 93C6.7 88.1 4.25 82.85 2.55 77.25C0.85 71.65 0 65.9 0 60C0 51.7 1.576 43.9 4.728 36.6C7.88 29.3 12.154 22.95 17.55 17.55C22.95 12.15 29.3 7.876 36.6 4.728C43.9 1.58 51.7 0.004 60 0C68.3 0 76.1 1.576 83.4 4.728C90.7 7.88 97.05 12.154 102.45 17.55C107.85 22.95 112.126 29.3 115.278 36.6C118.43 43.9 120.004 51.7 120 60C120 65.9 119.15 71.65 117.45 77.25C115.75 82.85 113.3 88.1 110.1 93L101.4 84.3C103.6 80.6 105.25 76.7 106.35 72.6C107.45 68.5 108 64.3 108 60C108 46.6 103.35 35.25 94.05 25.95C84.75 16.65 73.4 12 60 12C46.6 12 35.25 16.65 25.95 25.95C16.65 35.25 12 46.6 12 60C12 64.3 12.55 68.5 13.65 72.6C14.75 76.7 16.4 80.6 18.6 84.3L9.9 93Z" fill="#7166EA"/>
</svg>
