<svg width="120" height="120" viewBox="0 0 120 120" fill="none" xmlns="http://www.w3.org/2000/svg">
<path d="M60 84L90 54L81.6 45.6L66 61.05L66 0L54 0V61.05L38.4 45.6L30 54L60 84ZM110.1 27C113.3 31.9 115.75 37.15 117.45 42.75C119.15 48.35 120 54.1 120 60C120 68.3 118.424 76.1 115.272 83.4C112.12 90.7 107.846 97.05 102.45 102.45C97.05 107.85 90.7 112.124 83.4 115.272C76.1 118.42 68.3 119.996 60 120C51.7 120 43.9 118.424 36.6 115.272C29.3 112.12 22.95 107.846 17.55 102.45C12.15 97.05 7.874 90.7 4.722 83.4C1.57 76.1 -0.004 68.3 0 60C0 54.1 0.849995 48.35 2.55 42.75C4.25 37.15 6.7 31.9 9.9 27L18.6 35.7C16.4 39.4 14.75 43.3 13.65 47.4C12.55 51.5 12 55.7 12 60C12 73.4 16.65 84.75 25.95 94.05C35.25 103.35 46.6 108 60 108C73.4 108 84.75 103.35 94.05 94.05C103.35 84.75 108 73.4 108 60C108 55.7 107.45 51.5 106.35 47.4C105.25 43.3 103.6 39.4 101.4 35.7L110.1 27Z" fill="#7166EA"/>
</svg>
