<svg width="121" height="120" viewBox="0 0 121 120" fill="none" xmlns="http://www.w3.org/2000/svg">
<path d="M119.722 81.7213C120.603 83.1439 120.843 84.8337 120.39 86.4208C119.936 88.0078 118.825 89.3626 117.301 90.1884L63.9976 119.153C62.9781 119.708 61.8188 120 60.6383 120C59.4578 120 58.2986 119.708 57.2791 119.153L3.97533 90.1884C2.44824 89.3592 1.33732 87.9988 0.88696 86.4065C0.436602 84.8143 0.683698 83.1206 1.57389 81.6981C2.46408 80.2755 3.92445 79.2406 5.63373 78.8211C7.343 78.4016 9.16118 78.6318 10.6883 79.461L60.6605 106.605L110.638 79.461C112.166 78.6423 113.979 78.4204 115.681 78.844C117.384 79.2676 118.837 80.3022 119.722 81.7213ZM110.638 54.6339L60.6661 81.7782L10.7216 54.6339C9.19882 53.8723 7.41793 53.6916 5.7549 54.1302C4.09188 54.5687 2.67685 55.5921 1.80858 56.9842C0.940296 58.3764 0.68671 60.0283 1.10135 61.5913C1.516 63.1544 2.56642 64.5061 4.03086 65.3613L57.3346 94.3263C58.3541 94.8807 59.5134 95.1728 60.6939 95.1728C61.8743 95.1728 63.0336 94.8807 64.0531 94.3263L117.357 65.3613C118.884 64.5313 119.995 63.1703 120.444 61.5776C120.894 59.9848 120.646 58.2909 119.756 56.8683C118.865 55.4458 117.404 54.4112 115.694 53.9921C113.984 53.5731 112.165 53.8039 110.638 54.6339ZM0.699374 35.1704C0.701545 34.0828 1.01045 33.0149 1.59513 32.0736C2.17982 31.1322 3.01978 30.3505 4.03086 29.8067L57.3346 0.841695C58.3552 0.290363 59.5141 0 60.6939 0C61.8737 0 63.0325 0.290363 64.0531 0.841695L117.357 29.8067C118.364 30.353 119.2 31.1358 119.78 32.077C120.361 33.0182 120.667 34.0848 120.667 35.1704C120.667 36.256 120.361 37.3227 119.78 38.2638C119.2 39.205 118.364 39.9878 117.357 40.5341L64.0531 69.4991C63.0336 70.0535 61.8743 70.3457 60.6939 70.3457C59.5134 70.3457 58.3541 70.0535 57.3346 69.4991L4.03086 40.5341C3.01978 39.9903 2.17982 39.2086 1.59513 38.2673C1.01045 37.3259 0.701545 36.258 0.699374 35.1704ZM20.5883 35.1704L60.6661 56.9511L100.744 35.1704L60.6661 13.3898L20.5883 35.1704Z" fill="#7166EA"/>
</svg>
