<svg width="127" height="120" viewBox="0 0 127 120" fill="none" xmlns="http://www.w3.org/2000/svg">
<path d="M120 100V106.667C120 114 114 120 106.667 120H13.3333C5.93333 120 0 114 0 106.667V13.3333C0 6 5.93333 0 13.3333 0H106.667C114 0 120 6 120 13.3333V20H60C52.6 20 46.6667 26 46.6667 33.3333V86.6667C46.6667 94 52.6 100 60 100H120ZM60 86.6667H126.667V33.3333H60V86.6667ZM86.6667 70C81.1333 70 76.6667 65.5333 76.6667 60C76.6667 54.4667 81.1333 50 86.6667 50C92.2 50 96.6667 54.4667 96.6667 60C96.6667 65.5333 92.2 70 86.6667 70Z" fill="#7166EA"/>
</svg>
